<?xml version="1.0" encoding="utf-8"?>
<!-- Generator: Adobe Illustrator 25.0.0, SVG Export Plug-In . SVG Version: 6.00 Build 0)  -->
<svg version="1.1" id="Layer_1" xmlns="http://www.w3.org/2000/svg" xmlns:xlink="http://www.w3.org/1999/xlink" x="0px" y="0px"
	 viewBox="0 0 50 50" style="enable-background:new 0 0 50 50;" xml:space="preserve">
<style type="text/css">
	
		.st0{fill-rule:evenodd;clip-rule:evenodd;fill:#FFFFFF;stroke:#000000;stroke-width:1.4164;stroke-linejoin:round;stroke-miterlimit:10;}
</style>
<g>
	<rect x="9.9" y="15.9" class="st0" width="21.4" height="26.9"/>
	<rect x="14.3" y="11.6" class="st0" width="21.4" height="26.9"/>
	<polygon class="st0" points="40,34.1 18.7,34.1 18.7,7.2 32.9,7.2 40,14.3 	"/>
	<polygon class="st0" points="40,34.1 18.7,34.1 18.7,7.2 32.9,7.2 32.9,14.3 40,14.3 	"/>
	<g>
		<path class="st0" d="M35.8,18.5c0,0-3,0-6.7,0s-6.7,0-6.7,0s3,0,6.7,0S35.8,18.5,35.8,18.5z"/>
		<path class="st0" d="M33.6,22.3c0,0-2.5,0-5.6,0s-5.6,0-5.6,0s2.5,0,5.6,0S33.6,22.3,33.6,22.3z"/>
		<path class="st0" d="M35.8,26.1c0,0-3,0-6.7,0s-6.7,0-6.7,0s3,0,6.7,0S35.8,26.1,35.8,26.1z"/>
		<path class="st0" d="M33.6,29.9c0,0-2.5,0-5.6,0s-5.6,0-5.6,0s2.5,0,5.6,0S33.6,29.9,33.6,29.9z"/>
	</g>
</g>
</svg>
